<?xml version="1.0"?>
<svg xmlns="http://www.w3.org/2000/svg" xmlns:xlink="http://www.w3.org/1999/xlink" xmlns:svgjs="http://svgjs.com/svgjs" version="1.1" width="512" height="512" x="0" y="0" viewBox="0 0 512.003 512.003" style="enable-background:new 0 0 512 512" xml:space="preserve" class=""><g><g xmlns="http://www.w3.org/2000/svg"><g><path d="m90.889 296.923c-.231 0-.464-.01-.698-.032-4.125-.38-7.159-4.032-6.779-8.157 3.597-38.953 57.412-58.241 67.907-60.603 49.069-17.934 67.642-31.597 53.678-93.744-.908-4.042 1.632-8.054 5.673-8.962 4.047-.91 8.055 1.634 8.962 5.673 7.882 35.078 6.079 58.414-5.845 75.665-11.204 16.211-30.436 25.657-57.834 35.646-.399.146-.811.257-1.229.333-9.336 1.694-53.797 19.439-56.376 47.371-.358 3.89-3.628 6.81-7.459 6.81z" fill="#4cd137" data-original="#000000" style="" class=""/></g><g><path d="m216.032 444.547c-10.516 0-21.03-1.913-29.224-5.739-3.754-1.753-5.375-6.216-3.623-9.969 1.753-3.754 6.215-5.377 9.969-3.623 12.401 5.791 33.354 5.791 45.754 0 3.754-1.75 8.217-.131 9.97 3.622 1.752 3.754.131 8.217-3.622 9.97-8.194 3.826-18.71 5.739-29.224 5.739z" fill="#4cd137" data-original="#000000" style="" class=""/></g><g><path d="m153.903 332.506c-8.487 0-16.975-.902-23.588-2.708-3.995-1.091-6.351-5.215-5.26-9.211s5.217-6.35 9.211-5.26c10.645 2.906 28.629 2.906 39.273 0 3.992-1.091 8.12 1.263 9.211 5.26 1.091 3.996-1.265 8.12-5.26 9.211-6.613 1.806-15.1 2.708-23.587 2.708z" fill="#4cd137" data-original="#000000" style="" class=""/></g><g><path d="m279.136 334.494c-8.491 0-16.985-.902-23.608-2.706-3.997-1.088-6.354-5.211-5.266-9.207 1.088-3.998 5.213-6.35 9.207-5.266 10.669 2.906 28.67 2.905 39.308.001 3.991-1.091 8.12 1.263 9.211 5.26 1.091 3.996-1.265 8.12-5.26 9.211-6.61 1.804-15.1 2.707-23.592 2.707z" fill="#4cd137" data-original="#000000" style="" class=""/></g><path d="m492.298.892c-3.648-1.958-8.196-.586-10.154 3.064l-62.097 115.774-33.75-18.099c-4.835-2.58-10.299-2.83-15.124-1.173-38.872-42.93-93.666-67.433-151.309-67.433-53.476 0-104.133 20.726-142.641 58.359-2.962 2.896-3.017 7.644-.122 10.606 2.894 2.962 7.643 3.017 10.606.122 35.688-34.879 82.623-54.088 132.156-54.088 53.374 0 104.124 22.695 140.15 62.457l-8.013 14.955c-3.455 6.475-2.761 14.063 1.126 19.719l-35.885 44.234c-1.393 1.71-5.629 6.915-4.354 13.303.533 2.67 2.243 6.432 7.377 9.194l88.688 47.544v42.47c0 43.503-2.194 78.019-12.905 105.063-11.461 28.941-32.275 47.225-65.504 57.539-8.013 2.489-11.571 1.789-12.412.984-1.04-.997-2.229-4.643 1.093-17.785 9.942-11.88 18.185-24.255 23.853-36.079 1.791-3.735.215-8.215-3.521-10.005-3.733-1.791-8.214-.216-10.005 3.521-5.468 11.407-13.195 22.851-22.252 33.6-.448.41-.848.876-1.188 1.392-27.122 31.61-65.521 56.87-91.164 56.87-.716 0-1.422-.02-2.117-.059-.285-.018-.57-.018-.855 0-18.6 1.06-47.099-12.85-72.232-34.139-2.865-1.928-13.664-11.28-17.835-17.04-10.452-17.475-10.106-34.828-8.271-60.657 3.976-56.245 47.513-79.66 89.617-102.304 22.597-12.153 44.295-23.828 60.163-40.012 20.034 34.254 55.101 49.101 85.34 49.198l.001 7.176c.008 19.88.01 25.879-.192 29.525-.008.139-.012.276-.012.415 0 12.58-2.11 26.964-6.104 41.598-1.091 3.996 1.265 8.12 5.261 9.21.661.181 1.325.267 1.979.267 3.298 0 6.32-2.192 7.23-5.527 4.317-15.824 6.61-31.496 6.633-45.341.214-4.049.212-9.778.204-30.151l-.003-14.981c0-2.103-.883-4.109-2.434-5.53-1.551-1.42-3.626-2.122-5.721-1.941-28.297 2.481-64.003-10.988-81.888-46.349 2.08-3.026 3.983-6.195 5.671-9.544.078-.156.142-.314.209-.472.015-.036.036-.067.051-.103.012-.029.022-.059.033-.087s.022-.057.032-.085c11.066-27.678 5.85-64.781-13.976-99.301-2.063-3.591-6.646-4.83-10.239-2.769-3.592 2.063-4.831 6.647-2.769 10.239 17.522 30.508 22.411 62.662 13.116 86.104-12.501 24.49-40.282 39.437-69.692 55.253-43.554 23.423-92.918 49.972-97.476 114.455-2.001 28.153-2.323 48.533 10.586 69.795.094.171 6.853 8.676 10.14 11.406-8.677-3.06-20.383-8.867-32.779-18.598-20.866-16.379-55.871-54.41-55.871-125.096v-85.04c0-38.899 11.968-76.332 34.609-108.251 2.396-3.378 1.601-8.06-1.778-10.456-3.377-2.397-8.06-1.6-10.456 1.778-24.451 34.469-37.375 74.902-37.375 116.929v85.04c0 45.391 13.699 85.425 39.616 115.775 21.539 25.223 47.653 39.186 64.911 43.842 4.503 1.215 8.416 1.822 11.729 1.822 2.867 0 5.283-.456 7.244-1.364 22.449 17.136 48.53 30.374 70.566 30.373.869 0 1.731-.021 2.588-.062 19.969.961 46.382-10.319 72.617-31.003 6.042-4.763 11.889-9.892 17.446-15.262.665 3.995 2.239 7.721 5.288 10.642 3.422 3.279 7.912 4.914 13.576 4.914 3.967 0 8.51-.803 13.662-2.403 82.266-25.535 88.96-95.235 88.96-176.928v-40.127c5.659-2.615 7.564-8.746 8.189-10.777l16.978-54.351c.1.001.2.009.3.009 1.84 0 3.692-.271 5.507-.816 4.872-1.466 8.876-4.736 11.271-9.205l8.605-16.024c4.892-9.217 1.409-20.737-7.765-25.681-.004-.002-.009-.005-.014-.007l-33.759-18.104 62.096-115.772c1.963-3.65.591-8.196-3.06-10.154zm-74.483 245.66c-.059.188-.114.36-.169.52l-18.412-9.87 6.845-23.706c1.148-3.979-1.146-8.138-5.125-9.287-3.978-1.147-8.137 1.145-9.287 5.125l-5.954 20.62-24.099-12.919 13.898-16.353c2.683-3.156 2.299-7.89-.857-10.572s-7.89-2.298-10.572.857l-15.993 18.818-19.562-10.487c.105-.14.224-.289.354-.449l36.352-44.809 69.789 37.425zm43.756-83.006-8.591 15.997c-.677 1.264-1.778 1.753-2.375 1.933-.59.178-1.768.376-3.027-.299-.001 0-.002-.001-.003-.002l-76.639-41.098-4.091-2.194c-1.893-1.01-2.631-3.476-1.618-5.372l8.58-16.009c.717-1.33 2.141-2.097 3.581-2.097.626 0 1.257.145 1.833.452l80.704 43.278c1.937 1.045 2.667 3.486 1.646 5.411z" fill="#4cd137" data-original="#000000" style="" class=""/></g></g></svg>
