<?xml version="1.0"?>
<svg xmlns="http://www.w3.org/2000/svg" xmlns:xlink="http://www.w3.org/1999/xlink" xmlns:svgjs="http://svgjs.com/svgjs" version="1.1" width="512" height="512" x="0" y="0" viewBox="0 0 512 512" style="enable-background:new 0 0 512 512" xml:space="preserve" class=""><g><path xmlns="http://www.w3.org/2000/svg" d="m383.7 310.365a20.776 20.776 0 1 0 20.776 20.776 20.8 20.8 0 0 0 -20.776-20.776zm0 29.552a8.776 8.776 0 1 1 8.776-8.776 8.787 8.787 0 0 1 -8.776 8.776z" fill="#4cd137" data-original="#000000" style=""/><path xmlns="http://www.w3.org/2000/svg" d="m166.792 367a6 6 0 0 0 -6-6h-75.806a6 6 0 1 0 0 12h75.806a6 6 0 0 0 6-6z" fill="#4cd137" data-original="#000000" style=""/><path xmlns="http://www.w3.org/2000/svg" d="m64.605 361h-4.834a6 6 0 0 0 0 12h4.834a6 6 0 1 0 0-12z" fill="#4cd137" data-original="#000000" style=""/><path xmlns="http://www.w3.org/2000/svg" d="m460.391 326h-8.45a18.336 18.336 0 0 0 -17.87-13h-9.221a44.7 44.7 0 0 0 -34.65-26.37l-220.279-220.282a30.931 30.931 0 0 0 -43.744 0l-3.685 3.684a6 6 0 0 0 0 8.486l9.65 9.649a27.612 27.612 0 0 0 3.774 34.34l97.169 97.171a27.646 27.646 0 0 0 34.336 3.769l80.479 80.475a45.211 45.211 0 0 0 -3.916 6.078h-123.023c-2.746-12-13.78-22-26.944-22h-137.417c-13.164 0-24.2 10-26.944 22h-13.656a5.969 5.969 0 0 0 -6 5.963v5.21a30.877 30.877 0 0 0 30.932 30.827h302.868a45.008 45.008 0 0 0 80.466-1h9.807c8.3 0 15.356-6 17.87-13h8.45a29.5 29.5 0 1 1 0 59h-221.208a29 29 0 0 0 0 58h77.627a6 6 0 0 0 0-12h-77.627a17 17 0 0 1 0-34h221.206a41.5 41.5 0 1 0 0-83zm-403.791-26h137.42a15.441 15.441 0 0 1 14.406 10h-166.236a15.443 15.443 0 0 1 14.41-10zm282.962 40h-298.63a18.886 18.886 0 0 1 -18.916-18h317.607a45.12 45.12 0 0 0 -.064 18zm-97.991-128.808-97.17-97.17a15.643 15.643 0 0 1 -3.401-16.994l117.556 117.553a15.627 15.627 0 0 1 -16.985-3.389zm-106.34-136.906a18.934 18.934 0 0 1 26.205.547l212.426 212.426a44.865 44.865 0 0 0 -17.486 8.172zm248.469 289.871a33.016 33.016 0 1 1 33.016-33.016 33.054 33.054 0 0 1 -33.016 33.016zm50.371-25.157h-5.993a52.428 52.428 0 0 0 .638-7.646 46.679 46.679 0 0 0 -.44-6.354h5.794a7 7 0 0 1 0 14z" fill="#4cd137" data-original="#000000" style=""/></g></svg>
