<?xml version="1.0"?>
<svg xmlns="http://www.w3.org/2000/svg" xmlns:xlink="http://www.w3.org/1999/xlink" xmlns:svgjs="http://svgjs.com/svgjs" version="1.1" width="512" height="512" x="0" y="0" viewBox="0 0 512 512" style="enable-background:new 0 0 512 512" xml:space="preserve" class=""><g><g xmlns="http://www.w3.org/2000/svg"><path d="m464.843 309.624c-1.257-.197-4.696-.762-5.155-.837 34.407-39.071 50.214-95.015 41.294-146.64-1.693-9.853-13.059-14.613-21.202-8.893-1.907 1.335-3.865 2.534-5.865 3.621-6.723-24.717-23.008-44.412-48.541-58.686-.253-8.165-3.889-15.492-9.559-20.615l6.555-18.004c3.185 3.659 7.256 6.476 11.941 8.181 7.327 2.666 15.206 2.287 22.19-.969 7.025-3.276 12.354-9.092 15.006-16.376l4.165-11.443c2.651-7.285 2.307-15.165-.969-22.191-3.276-7.025-9.092-12.354-16.376-15.006-15.033-5.471-31.722 2.308-37.196 17.345l-18.779 51.595c-3.937-.826-7.994-.827-11.932 0l-18.78-51.595c-2.651-7.285-7.98-13.1-15.006-16.376-7.026-3.275-14.906-3.62-22.19-.969-7.285 2.651-13.1 7.98-16.376 15.006-3.276 7.025-3.62 14.906-.969 22.19l4.165 11.444c4.285 11.772 15.441 19.096 27.299 19.096 3.289 0 6.632-.563 9.896-1.751 4.685-1.705 8.757-4.523 11.942-8.182l6.555 18.004c-5.671 5.123-9.307 12.451-9.559 20.617-14.719 8.237-26.462 18.391-35.016 30.288-7.242-3.987-14.491-8.074-21.551-12.059-14.335-8.09-29.157-16.455-44.145-24.085-41.318-21.027-75.874-31.805-108.744-33.919-18.997-1.231-38.228.785-55.615 5.831-3.978 1.154-6.267 5.315-5.112 9.293 1.154 3.978 5.316 6.268 9.293 5.112 15.734-4.566 33.185-6.388 50.467-5.268 30.769 1.979 63.47 12.249 102.907 32.318 14.7 7.483 29.38 15.768 43.576 23.78 6.947 3.921 14.075 7.942 21.226 11.883-8.162 16.767-10.995 36.126-8.416 57.671 2.389 19.964 8.965 37.589 14.063 48.866 2.102 4.636 6.662 7.562 11.715 7.562 5.448 0 10.244-3.367 12.104-8.473 2.755-7.566 16.616-45.648 28.344-77.872 34.216 12.478 73.613 17.664 104.051-2.333 7.506 47.411-7.569 98.478-39.598 133.746-3.393 3.722-4.472 8.978-2.817 13.718 1.648 4.722 5.747 8.15 10.728 8.953 1.257.197 4.824.783 5.349.869-68.656 84.196-129.346 90.695-168.279 81.213-37.711-9.184-67.219-41.393-68.689-80.189-.5-13.069 1.789-25.941 4.212-39.569 3.253-18.294 6.617-37.21 2.796-56.923-.531-2.733-1.182-5.424-1.925-8.076 12.198 15.54 21.783 33.325 26.144 47.716 1.201 3.964 5.388 6.204 9.352 5.003s6.204-5.388 5.003-9.352c-8.872-29.281-35.899-69.378-66.006-86.45-10.975-10.445-24.288-17.634-38.897-20.924-12.512-2.828-25.186-2.338-27.7-1.713-1.614.401-3.201.841-4.762 1.316 6.439-4.349 13.427-7.889 20.743-10.395 19.092-6.539 49.43-9.085 85.531 15.927 3.405 2.359 8.077 1.511 10.436-1.894s1.511-8.077-1.894-10.436c-41.25-28.579-76.568-25.447-98.933-17.787-29.981 10.268-55.286 35.514-64.707 64.456-1.477 2.659-2.867 5.428-4.157 8.321-4.527 10.15-7.914 21.861-10.157 35.023-13.451 2.22-24.89 8.525-32.505 17.274-12.644-25.307-13.318-52.497-11.489-71.416 3.146-32.624 15.695-61.084 35.338-80.138 4.992-4.847 10.638-9.26 16.783-13.119 3.508-2.203 4.566-6.832 2.363-10.34-2.202-3.508-6.831-4.566-10.34-2.363-7.033 4.416-13.512 9.483-19.254 15.058-22.192 21.527-36.335 53.298-39.822 89.46-2.96 30.624 1.815 62.233 17.868 88.335-.957 3.335-1.463 6.819-1.463 10.405 0 23.054 21.489 42.013 48.737 43.876 8.736 19.999 23.212 38.243 41.582 52.097v44.434c0 .287-.187.536-.475.623-18.38 5.569-42.202 10.768-60.976 22.476-18.664 11.64-28.127 27.578-28.127 47.37v4.69c0 7.686 6.249 13.94 13.93 13.94h249.076c7.686 0 13.94-6.253 13.94-13.94-.488-2.782 3.374-25.136-17.487-44.09-3.065-2.786-7.808-2.559-10.594.507-2.786 3.065-2.559 7.808.507 10.594 15.161 13.776 12.174 29.571 12.574 31.929h-246.945v-3.63c0-14.672 6.694-25.68 21.065-34.642 16.72-10.428 39.937-15.56 57.379-20.846 6.66-2.008 11.135-8.028 11.135-14.981v-34.672c12.027 6.616 23.996 10.384 33.89 10.384 9.97 0 21.926-3.823 33.899-10.426v34.714c0 6.949 4.469 12.968 11.117 14.978 11.54 3.493 25.077 6.793 37.956 11.607 3.866 1.444 8.196-.505 9.651-4.399 1.45-3.88-.52-8.201-4.399-9.651-13.516-5.052-27.64-8.515-38.865-11.913-.275-.083-.46-.333-.46-.621v-44.469c2.801-2.11 5.556-4.351 8.235-6.718 14.304 23.686 38.416 41.368 66.239 48.144 10.352 2.521 20.759 3.779 31.198 3.779 24.616 0 49.403-6.998 74.019-20.939 27.489-15.567 54.335-39.479 79.791-71.065 3.091-3.829 3.876-8.856 2.1-13.445-1.787-4.611-5.773-7.814-10.645-8.565zm-11.646-293.764c3.519 1.281 6.329 3.855 7.911 7.249 1.583 3.394 1.749 7.202.468 10.721l-4.165 11.444c-1.281 3.519-3.855 6.329-7.249 7.911s-7.202 1.749-10.721.468-6.329-3.855-7.911-7.249c-1.569-3.366-1.752-7.142-.495-10.633.425-1.18-1.555 4.27 4.192-11.531 2.643-7.265 10.706-11.024 17.97-8.38zm-99.865 37.794c-7.266 2.644-15.326-1.115-17.97-8.379l-4.165-11.444c-2.65-7.282 1.096-15.32 8.379-17.97 7.281-2.651 15.321 1.097 17.97 8.379.428 1.176-1.518-4.273 4.183 11.503 2.623 7.259-1.13 15.266-8.397 17.911zm57.065 45.442c0 7.725-6.286 14.011-14.011 14.011s-14.011-6.286-14.011-14.011 6.286-14.011 14.011-14.011c7.726 0 14.011 6.285 14.011 14.011zm-68.518 137.755c-21.255-50.792-7.649-82.933-.619-94.618 6.766-11.247 16.806-20.926 29.884-28.865 2.708 4.771 6.725 8.705 11.565 11.304.001 0-33.818 92.917-40.83 112.179zm54.508-105.9 10.967 30.138c-6.859-1.692-13.497-3.792-19.73-6.063.831-2.283 6.841-18.795 8.763-24.075zm28.093 33.336-14.416-39.616c4.842-2.6 8.861-6.537 11.569-11.311 20.304 12.327 33.125 28.796 38.23 49.094-11.329 3.066-23.434 3.304-35.383 1.833zm-383.681 118.207c0-12.406 10.629-23.315 25.451-27.36-1.795 18.87-2.201 37.398 2.688 55.379-16.194-3.354-28.139-14.641-28.139-28.019zm167.452 43.173c.419 11.061 2.741 21.843 6.91 32.119-18.674 17.715-38.772 25.827-50.154 25.827-26.799 0-84.958-41.048-84.958-102.05 0-29.164 4.08-53.098 12.126-71.137 1.226-2.749 2.542-5.364 3.947-7.847.029-.053.064-.101.093-.155 9.362-17.44 23.93-28.011 43.006-32.904 7.249-.487 14.442.062 21.398 1.633 29.31 6.6 49.233 31.134 54.904 60.309 3.29 16.973.313 33.714-2.839 51.439-2.456 13.809-4.995 28.088-4.433 42.766z" fill="#4cd137" data-original="#000000" style="" class=""/><path d="m182.984 320.712c-12.095 5.742-23.853 5.742-35.948 0-3.742-1.776-8.215-.184-9.992 3.558-1.776 3.742-.183 8.215 3.559 9.992 8.098 3.845 16.253 5.767 24.407 5.767 8.155 0 16.309-1.922 24.407-5.767 3.742-1.777 5.335-6.25 3.559-9.992-1.777-3.741-6.249-5.335-9.992-3.558z" fill="#4cd137" data-original="#000000" style="" class=""/><path d="m136.379 260.83c0-4.142-3.358-7.5-7.5-7.5s-7.5 3.358-7.5 7.5v10.481c0 4.142 3.358 7.5 7.5 7.5s7.5-3.358 7.5-7.5z" fill="#4cd137" data-original="#000000" style="" class=""/><path d="m139.33 238.367c1.194.703 2.503 1.037 3.796 1.037 2.57 0 5.074-1.322 6.471-3.698 2.1-3.57.909-8.167-2.662-10.267-11.812-6.949-24.3-6.949-36.113 0-3.57 2.1-4.762 6.697-2.662 10.267s6.696 4.762 10.267 2.662c7.131-4.195 13.773-4.195 20.903-.001z" fill="#4cd137" data-original="#000000" style="" class=""/></g></g></svg>
